{"title":"Hoodwinked Too Hood Vs Evil 2011 DVDRip XViD DTRG","uid":6576356,"size":1240751015,"categoryP":"video","categoryS":"movies","magnet":"?xt=urn:btih:bce8088c7eaa609ff0aa85b5f791634ed1a541f8&amp;dn=Hoodwinked+Too+Hood+Vs+Evil+2011+DVDRip+XViD+DTRG&amp;tr=udp%3A%2F%2Ftracker.openbittorrent.com%3A80&amp;tr=udp%3A%2F%2Fopen.demonii.com%3A1337&amp;tr=udp%3A%2F%2Ftracker.coppersurfer.tk%3A6969&amp;tr=udp%3A%2F%2Fexodus.desync.com%3A6969","seeders":0,"leechers":1,"uploader":"SAFCukO09","files":3,"time":1312212796,"description":"Format : AVI\nFormat/Info : Audio Video Interleave\nFile size : 1.16 GiB\nDuration : 1h 26mn\nOverall bit rate : 1 915 Kbps\nWriting library : VirtualDub build 32842/release\n\nVideo\nID : 0\nFormat : MPEG-4 Visual\nFormat profile : Advanced Simple@L5\nFormat settings, BVOP : 2\nFormat settings, QPel : No\nFormat settings, GMC : No warppoints\nFormat settings, Matrix : Default (H.263)\nMuxing mode : Packed bitstream\nCodec ID : XVID\nCodec ID/Hint : XviD\nDuration : 1h 26mn\nBit rate : 1 457 Kbps\nWidth : 720 pixels\nHeight : 400 pixels\nDisplay aspect ratio : 16:9\nFrame rate : 23.976 fps\nColor space : YUV\nChroma subsampling : 4:2:0\nBit depth : 8 bits\nScan type : Progressive\nCompression mode : Lossy\nBits/(Pixel*Frame) : 0.211\nStream size : 901 MiB (76%)\nWriting library : XviD 64\n\nAudio\nID : 1\nFormat : AC-3\nFormat/Info : Audio Coding 3\nMode extension : CM (complete main)\nCodec ID : 2000\nDuration : 1h 26mn\nBit rate mode : Constant\nBit rate : 448 Kbps\nChannel(s) : 6 channels\nChannel positions : Front: L C R, Side: L R, LFE\nSampling rate : 48.0 KHz\nBit depth : 16 bits\nCompression mode : Lossy\nDelay relative to video : 1s 25ms\nStream size : 277 MiB (23%)\nAlignment : Split accross interleaves\nInterleave, duration : 42 ms (1.00 video frame)\nInterleave, preload duration : 500 ms\n\n\n\n\n\n &lt;a href=&quot;\nhttp://www.imdb.com/title/tt0844993/&quot; rel=&quot;nofollow&quot; target=&quot;_NEW&quot;&gt;\nhttp://www.imdb.com/title/tt0844993/&lt;/a&gt;\n\n\n\n\n\n\n\n\n\nUsers: (655 votes) 12 reviews | Critics: 45 reviews Metascore: 20/100 (based on 21 reviews from Metacritic.com)\n\n\nRed Riding Hood is training in the group of Sister Hoods, when she and the Wolf are called to examine the sudden mysterious disappearance of Hansel and Gretel.\n\nDirector: Mike Disa\nWriters: Cory Edwards, Todd Edwards, and 2 more credits Ã‚Â»\nStars: Hayden Panettiere, Glenn Close and Patrick Warburton\n\n\n\n\n\n\n\n\n\n\n\n\n\n\n\n\n\n\n\n\nSource Used\n\n\n\ndvdrip sic ............Thanks\n\n\n\n\nEnjoy\n\n\n\n\n\nGreetz to IMAGiNE,Flawl3ss,DiLLoN,BDK,NOiR,TOXiC,THC,Ez,Rx,Boobyblue,TaRiQ786,BHRG\n","torrent":{"xt":"urn:btih:bce8088c7eaa609ff0aa85b5f791634ed1a541f8","amp;dn":"Hoodwinked+Too+Hood+Vs+Evil+2011+DVDRip+XViD+DTRG","amp;tr":["udp%3A%2F%2Ftracker.openbittorrent.com%3A80","udp%3A%2F%2Fopen.demonii.com%3A1337","udp%3A%2F%2Ftracker.coppersurfer.tk%3A6969","udp%3A%2F%2Fexodus.desync.com%3A6969"],"infoHash":"bce8088c7eaa609ff0aa85b5f791634ed1a541f8","infoHashBuffer":{"type":"Buffer","data":[188,232,8,140,126,170,96,159,240,170,133,181,247,145,99,78,209,165,65,248]},"announce":[],"urlList":[]}}